<svg xmlns="http://www.w3.org/2000/svg" xmlns:xlink="http://www.w3.org/1999/xlink" contentStyleType="text/css" data-diagram-type="STATE" height="583px" preserveAspectRatio="none" style="width:395px;height:583px;background:#FFFFFF;" version="1.1" viewBox="0 0 395 583" width="395px" zoomAndPan="magnify"><defs/><g><ellipse cx="51.54" cy="16" fill="#222222" rx="10" ry="10" style="stroke:#222222;stroke-width:1;"/><rect fill="#F1F1F1" height="40" rx="12.5" ry="12.5" style="stroke:#181818;stroke-width:0.5;" width="89.0713" x="7" y="87"/><text fill="#000000" font-family="sans-serif" font-size="14" lengthAdjust="spacing" textLength="79.0713" x="12" y="112.291">REQUESTED</text><rect fill="#F1F1F1" height="40" rx="12.5" ry="12.5" style="stroke:#181818;stroke-width:0.5;" width="72.9795" x="15.05" y="204"/><text fill="#000000" font-family="sans-serif" font-size="14" lengthAdjust="spacing" textLength="62.9795" x="20.05" y="229.291">LOADING</text><rect fill="#F1F1F1" height="40" rx="12.5" ry="12.5" style="stroke:#181818;stroke-width:0.5;" width="66.5605" x="219.26" y="204"/><text fill="#000000" font-family="sans-serif" font-size="14" lengthAdjust="spacing" textLength="56.5605" x="224.26" y="229.291">LOADED</text><rect fill="#F1F1F1" height="40" rx="12.5" ry="12.5" style="stroke:#181818;stroke-width:0.5;" width="56.7373" x="154.17" y="321"/><text fill="#000000" font-family="sans-serif" font-size="14" lengthAdjust="spacing" textLength="46.7373" x="159.17" y="346.291">FAILED</text><rect fill="#F1F1F1" height="40" rx="12.5" ry="12.5" style="stroke:#181818;stroke-width:0.5;" width="58.9727" x="253.05" y="87"/><text fill="#000000" font-family="sans-serif" font-size="14" lengthAdjust="spacing" textLength="48.9727" x="258.05" y="112.291">ACTIVE</text><rect fill="#F1F1F1" height="40" rx="12.5" ry="12.5" style="stroke:#181818;stroke-width:0.5;" width="93.0225" x="200.02" y="438"/><text fill="#000000" font-family="sans-serif" font-size="14" lengthAdjust="spacing" textLength="83.0225" x="205.02" y="463.291">UNLOADING</text><ellipse cx="246.54" cy="566" fill="none" rx="11" ry="11" style="stroke:#222222;stroke-width:1;"/><ellipse cx="246.54" cy="566" fill="#222222" rx="6" ry="6" style="stroke:#222222;stroke-width:1;"/><!--link *start* to REQUESTED--><g class="link" data-entity-1="*start*" data-entity-2="REQUESTED" data-source-line="56" data-uid="lnk4" id="link_*start*_REQUESTED"><path d="M51.54,26.19 C51.54,40.4 51.54,62.02 51.54,80.74" fill="none" id="*start*-to-REQUESTED" style="stroke:#181818;stroke-width:1;"/><polygon fill="#181818" points="51.54,86.74,55.54,77.74,51.54,81.74,47.54,77.74,51.54,86.74" style="stroke:#181818;stroke-width:1;"/></g><!--link REQUESTED to LOADING--><g class="link" data-entity-1="REQUESTED" data-entity-2="LOADING" data-source-line="58" data-uid="lnk6" id="link_REQUESTED_LOADING"><path d="M51.54,127.25 C51.54,148.48 51.54,176.44 51.54,197.69" fill="none" id="REQUESTED-to-LOADING" style="stroke:#181818;stroke-width:1;"/><polygon fill="#181818" points="51.54,203.69,55.54,194.69,51.54,198.69,47.54,194.69,51.54,203.69" style="stroke:#181818;stroke-width:1;"/><text fill="#000000" font-family="sans-serif" font-size="13" lengthAdjust="spacing" textLength="70.6558" x="52.54" y="170.5684">initLoading</text></g><!--link LOADING to LOADED--><g class="link" data-entity-1="LOADING" data-entity-2="LOADED" data-source-line="59" data-uid="lnk8" id="link_LOADING_LOADED"><path d="M88.4,224 C125.69,224 176.83,224 212.91,224" fill="none" id="LOADING-to-LOADED" style="stroke:#181818;stroke-width:1;"/><polygon fill="#181818" points="218.91,224,209.91,220,213.91,224,209.91,228,218.91,224" style="stroke:#181818;stroke-width:1;"/><text fill="#000000" font-family="sans-serif" font-size="13" lengthAdjust="spacing" textLength="95.9194" x="106.14" y="217.5684">loadingSuccess</text></g><!--link LOADING to FAILED--><g class="link" data-entity-1="LOADING" data-entity-2="FAILED" data-source-line="60" data-uid="lnk10" id="link_LOADING_FAILED"><path d="M54.46,244.43 C57.53,258.83 63.63,278.09 75.54,291 C96.45,313.68 124.1502,325.0039 148.0902,331.8339" fill="none" id="LOADING-to-FAILED" style="stroke:#181818;stroke-width:1;"/><polygon fill="#181818" points="153.86,333.48,146.3027,327.1643,149.0519,332.1083,144.1079,334.8574,153.86,333.48" style="stroke:#181818;stroke-width:1;"/><text fill="#000000" font-family="sans-serif" font-size="13" lengthAdjust="spacing" textLength="89.3306" x="76.54" y="287.5684">loadingFailure</text></g><!--reverse link ACTIVE to LOADED--><g class="link" data-entity-1="ACTIVE" data-entity-2="LOADED" data-source-line="61" data-uid="lnk13" id="link_ACTIVE_LOADED"><path d="M247.0666,120.7857 C229.6866,128.5057 214.75,138.52 204.54,157 C195.35,173.62 208.93,190.92 223.96,203.64" fill="none" id="ACTIVE-backto-LOADED" style="stroke:#181818;stroke-width:1;"/><polygon fill="#181818" points="252.55,118.35,242.7011,118.3479,247.9805,120.3797,245.9487,125.6591,252.55,118.35" style="stroke:#181818;stroke-width:1;"/><text fill="#000000" font-family="sans-serif" font-size="13" lengthAdjust="spacing" textLength="109.9224" x="205.54" y="170.5684">activationSuccess</text></g><!--link ACTIVE to LOADED--><g class="link" data-entity-1="ACTIVE" data-entity-2="LOADED" data-source-line="64" data-uid="lnk17" id="link_ACTIVE_LOADED"><path d="M304.63,127.41 C316.67,140.44 327.62,158.07 319.54,174 C312.36,188.14 304.0841,196.016 291.1541,204.006" fill="none" id="ACTIVE-to-LOADED" style="stroke:#181818;stroke-width:1;"/><polygon fill="#181818" points="286.05,207.16,295.8089,205.8317,290.3034,204.5316,291.6035,199.0262,286.05,207.16" style="stroke:#181818;stroke-width:1;"/><text fill="#000000" font-family="sans-serif" font-size="13" lengthAdjust="spacing" textLength="63.8955" x="323.31" y="170.5684">deactivate</text></g><!--link LOADED to FAILED--><g class="link" data-entity-1="LOADED" data-entity-2="FAILED" data-source-line="62" data-uid="lnk14" id="link_LOADED_FAILED"><path d="M218.77,238.71 C203.91,246.65 187.94,258.24 179.54,274 C171.93,288.27 172.3161,300.9812 175.3661,314.7912" fill="none" id="LOADED-to-FAILED" style="stroke:#181818;stroke-width:1;"/><polygon fill="#181818" points="176.66,320.65,178.625,310.9991,175.5817,315.7677,170.8132,312.7244,176.66,320.65" style="stroke:#181818;stroke-width:1;"/><text fill="#000000" font-family="sans-serif" font-size="13" lengthAdjust="spacing" textLength="103.3335" x="180.54" y="287.5684">activationFailure</text></g><!--link LOADED to UNLOADING--><g class="link" data-entity-1="LOADED" data-entity-2="UNLOADING" data-source-line="63" data-uid="lnk16" id="link_LOADED_UNLOADING"><path d="M271.16,244.33 C278.02,252.75 284.98,263.17 288.54,274 C307.68,332.39 278.6995,398.7245 260.5895,432.4345" fill="none" id="LOADED-to-UNLOADING" style="stroke:#181818;stroke-width:1;"/><polygon fill="#181818" points="257.75,437.72,265.533,431.6847,260.1163,433.3154,258.4856,427.8987,257.75,437.72" style="stroke:#181818;stroke-width:1;"/><text fill="#000000" font-family="sans-serif" font-size="13" lengthAdjust="spacing" textLength="43.2402" x="295.15" y="346.0684">unload</text></g><!--link FAILED to UNLOADING--><g class="link" data-entity-1="FAILED" data-entity-2="UNLOADING" data-source-line="65" data-uid="lnk18" id="link_FAILED_UNLOADING"><path d="M193.25,361.25 C205.06,382.48 221.0415,411.1976 232.8715,432.4476" fill="none" id="FAILED-to-UNLOADING" style="stroke:#181818;stroke-width:1;"/><polygon fill="#181818" points="235.79,437.69,234.9072,427.8808,233.3579,433.3213,227.9174,431.7721,235.79,437.69" style="stroke:#181818;stroke-width:1;"/><text fill="#000000" font-family="sans-serif" font-size="13" lengthAdjust="spacing" textLength="43.2402" x="219.37" y="404.5684">unload</text></g><!--link UNLOADING to *end*--><g class="link" data-entity-1="UNLOADING" data-entity-2="*end*" data-source-line="66" data-uid="lnk20" id="link_UNLOADING_*end*"><path d="M246.54,478.44 C246.54,500.91 246.54,531.06 246.54,548.68" fill="none" id="UNLOADING-to-*end*" style="stroke:#181818;stroke-width:1;"/><polygon fill="#181818" points="246.54,554.68,250.54,545.68,246.54,549.68,242.54,545.68,246.54,554.68" style="stroke:#181818;stroke-width:1;"/><text fill="#000000" font-family="sans-serif" font-size="13" lengthAdjust="spacing" textLength="96.2051" x="247.54" y="521.5684">unloadingDone</text></g><!--SRC=[TP3H2i8W58RlVGgl0rzW5y5eBWPZKTkwYIv43tLWkR5fqDkdvUO8kfFpV-VprpigeF0Op8igcEI8Wy5UaylcIXdRqXC_jhnkU4R8Slm4vI7DYcfF4ueQJTaBXVf6vca079lGxflLLagOfeWu9a-BSita0Zix0Wcxp0uEIdTDSUOE4jBWK_XwQrVeiwWYzMjpL5l5tbRxMqdGitLb1S4297Z_BCUH1_odpP5xJTPh86y0]--></g></svg>